{"glyphs":{":":{"x_min":0,"x_max":338,"ha":338,"o":"m 298 351 q 338 351 338 317 q 338 291 314 265 q 291 239 263 239 q 228 239 228 274 q 228 304 251 327 q 275 351 298 351 z m 152 81 q 193 81 193 48 q 193 21 170 -5 q 147 -31 118 -31 q 83 -31 83 5 q 83 35 106 58 q 130 81 152 81 z"},"$":{"x_min":0,"x_max":434,"ha":434,"o":"m 496 656 q 496 653 479 623 q 452 571 420 510 q 505 510 507 467 q 507 465 507 465 q 507 434 495 418 q 483 402 458 390 q 433 378 417 378 q 401 378 395 383 q 389 389 385 390 q 382 392 382 397 q 382 403 387 410 q 392 417 394 425 q 379 423 375 423 q 336 346 307 288 q 346 277 371 265 q 396 253 409 234 q 422 214 422 190 q 422 166 399 138 q 375 110 340 91 q 265 52 191 46 q 153 -45 147 -53 q 142 -62 137 -65 q 132 -68 128 -68 q 116 -71 107 -71 q 99 -71 90 -68 q 82 -64 81 -61 q 81 -58 79 -53 q 77 -48 77 -44 q 77 -40 119 53 q 73 69 73 107 q 73 134 90 152 q 107 170 130 170 q 152 170 152 158 l 151 146 q 151 135 157 132 q 164 145 179 177 q 195 210 204 228 q 137 241 120 281 q 114 294 114 304 q 114 336 135 367 q 155 398 189 421 q 254 467 336 492 q 392 602 410 635 q 418 650 444 659 q 470 668 483 668 q 496 668 496 656 z m 286 392 q 250 374 223 351 q 196 329 196 321 q 196 314 207 310 q 217 307 241 302 q 264 349 286 392 z m 269 212 q 268 210 230 133 q 273 141 301 156 q 328 171 328 185 q 328 199 269 212 z"},"?":{"x_min":0,"x_max":536,"ha":536,"o":"m 317 512 q 324 512 324 503 q 324 480 304 469 q 284 457 256 457 q 229 457 205 476 q 182 495 182 517 q 182 557 212 595 q 242 632 288 658 q 390 714 491 714 q 608 714 664 647 q 692 613 692 570 q 692 527 678 493 q 663 459 638 434 q 612 409 581 387 q 550 366 513 346 q 477 327 443 310 q 362 267 322 227 q 306 210 311 185 q 312 177 306 171 q 299 165 286 165 q 274 165 267 166 q 260 167 249 171 q 225 178 225 203 q 225 249 265 286 q 297 316 384 367 q 470 417 512 446 q 606 510 606 569 q 606 633 498 633 q 453 633 401 615 q 350 596 314 566 q 278 537 278 508 q 278 506 283 504 q 288 501 293 501 q 298 501 307 507 q 315 512 317 512 z m 212 85 q 225 85 232 78 q 240 70 240 57 q 240 29 214 1 q 188 -27 160 -27 q 132 -27 132 2 q 132 32 157 58 q 182 85 212 85 z"},"<":{"x_min":0,"x_max":342,"ha":342,"o":"m 408 522 q 425 522 425 471 q 425 453 422 444 q 418 436 402 422 q 385 409 319 373 q 252 338 220 316 q 227 281 241 235 q 256 189 260 183 q 264 176 264 162 q 264 148 250 110 q 236 72 226 72 q 216 72 212 81 q 208 90 203 124 q 197 158 188 193 q 178 236 151 315 q 147 319 147 325 q 147 341 173 358 q 176 360 192 370 q 208 380 212 383 q 217 386 232 396 q 247 405 253 410 q 260 414 274 424 q 288 433 296 439 q 304 445 318 455 q 331 464 341 472 q 352 480 364 490 q 376 500 383 505 q 390 511 394 515 q 401 522 408 522 z"},"'":{"x_min":0,"x_max":191,"ha":191,"o":"m 324 671 q 337 694 371 694 q 405 694 405 676 q 405 658 376 602 q 347 545 311 495 q 275 444 259 444 q 252 444 238 454 q 223 464 223 473 q 223 492 324 671 z"},"=":{"x_min":0,"x_max":429,"ha":429,"o":"m 178 335 l 171 335 q 158 335 146 341 q 133 347 133 355 q 133 363 141 371 q 148 378 149 382 q 153 393 175 406 q 198 420 210 421 q 308 428 386 428 q 463 428 469 426 q 475 423 482 413 q 490 403 496 398 q 502 393 502 383 q 502 373 490 365 q 477 357 468 357 q 458 356 403 351 q 244 336 178 335 z m 118 195 l 111 195 q 98 195 85 201 q 73 207 73 215 q 73 223 81 230 q 88 238 90 245 q 93 252 115 266 q 138 280 150 281 q 245 288 314 288 q 383 288 389 286 q 395 283 402 273 q 410 263 416 258 q 422 253 422 243 q 422 233 410 226 q 397 218 388 217 q 379 216 345 213 q 310 209 274 205 q 182 196 118 195 z"},"a":{"x_min":0,"x_max":407,"ha":407,"o":"m 403 371 q 440 371 440 346 q 440 332 434 326 q 427 319 406 283 q 386 248 361 192 q 335 136 328 96 q 327 91 327 83 q 327 56 341 56 q 356 56 376 70 q 396 83 412 99 q 427 115 442 132 q 457 148 460 151 q 463 153 469 153 q 478 153 480 139 q 482 125 482 110 q 482 95 479 89 q 465 61 417 22 q 369 -17 329 -17 q 290 -17 271 7 q 253 31 253 60 q 253 89 263 111 q 222 58 170 21 q 117 -15 84 -15 q 51 -15 30 5 q 3 30 3 74 q 3 118 23 163 q 42 208 75 244 q 107 281 146 312 q 227 375 295 375 q 321 375 338 366 q 354 357 359 344 q 371 362 379 366 q 387 371 403 371 z m 338 317 q 254 317 165 224 q 133 191 107 145 q 80 98 80 81 q 80 64 90 64 q 104 64 166 118 q 229 172 249 197 q 271 226 338 317 z"},"L":{"x_min":0,"x_max":721,"ha":721,"o":"m 271 61 q 180 -20 54 -20 q -22 -20 -55 12 q -73 30 -73 74 q -73 143 31 163 q 63 169 109 169 q 155 169 235 152 q 277 199 336 291 q 395 383 429 433 q 463 483 507 535 q 550 587 598 629 q 694 715 788 715 q 830 715 849 694 q 867 672 867 643 q 867 614 841 576 q 814 537 779 507 q 744 478 710 457 q 676 436 657 436 q 637 436 623 453 q 609 469 609 485 q 609 500 613 506 q 617 512 622 512 q 626 512 627 507 q 643 512 677 537 q 711 563 740 591 q 768 619 768 626 q 768 633 760 633 q 751 633 736 627 q 722 621 697 603 q 673 584 645 556 q 576 487 492 362 q 473 333 437 279 q 364 169 333 129 q 583 63 691 63 q 741 63 761 76 q 768 80 771 80 q 773 80 773 76 q 773 72 769 64 q 764 57 747 31 q 729 6 721 1 q 697 -13 640 -13 q 583 -13 531 -5 q 479 3 447 11 q 415 20 353 38 q 291 56 271 61 z m 93 91 q 29 91 29 76 q 29 70 40 65 q 51 61 66 61 q 113 61 157 86 q 120 91 93 91 z"},"3":{"x_min":0,"x_max":411,"ha":411,"o":"m 414 220 q 407 162 359 109 q 311 57 239 22 q 167 -12 99 -12 q 65 -12 49 9 q 32 29 32 52 q 32 75 51 97 q 69 119 86 119 q 94 119 95 104 q 99 74 121 74 q 158 74 209 94 q 259 114 296 143 q 333 171 332 193 q 332 215 300 228 q 269 241 210 241 q 200 241 194 253 q 188 264 188 278 q 188 291 195 302 q 202 312 210 319 q 218 325 236 336 q 254 348 261 353 q 269 358 287 371 q 305 384 316 393 q 328 402 347 417 q 366 432 379 443 q 392 455 404 469 q 431 496 431 514 q 431 525 413 525 q 396 525 351 502 q 306 479 257 439 q 208 399 184 359 q 183 357 181 354 q 180 351 179 349 q 176 344 165 344 q 153 344 143 356 q 128 372 130 389 q 133 406 150 432 q 167 457 197 485 q 227 513 264 538 q 300 563 346 579 q 391 595 430 595 q 469 595 486 576 q 504 557 504 530 q 504 490 457 431 q 410 373 308 305 q 347 305 380 281 q 414 257 414 220 z"},";":{"x_min":0,"x_max":343,"ha":343,"o":"m 308 351 q 343 351 343 317 q 343 290 320 264 q 296 239 268 239 q 233 239 233 274 q 233 304 256 327 q 279 351 308 351 z m 91 -7 q 83 0 83 17 q 83 33 102 53 q 121 72 145 72 q 169 72 183 59 q 197 45 197 21 q 197 -2 180 -24 q 164 -46 132 -70 q 99 -94 83 -94 q 68 -94 62 -88 q 56 -83 52 -82 q 49 -81 49 -73 q 49 -65 53 -62 q 57 -60 73 -37 q 88 -14 91 -7 z"},"J":{"x_min":0,"x_max":642,"ha":642,"o":"m 517 160 q 535 169 568 182 q 600 195 609 195 q 615 195 615 188 q 615 181 612 174 q 608 167 605 161 q 601 156 595 148 l 588 138 q 564 105 521 83 q 505 75 477 62 q 448 50 437 44 l 411 5 q 329 -117 273 -178 q 218 -239 171 -267 q 124 -294 61 -294 q 31 -294 15 -268 q 0 -242 0 -209 q 0 -177 20 -142 q 41 -107 76 -76 q 112 -44 151 -16 q 190 12 237 38 q 314 80 386 113 q 564 375 747 620 q 751 624 751 626 q 751 628 736 628 q 722 628 671 618 q 560 596 451 537 q 341 478 263 402 q 185 326 185 279 q 185 255 206 240 q 226 224 250 224 q 273 224 299 236 q 324 248 340 260 q 357 272 359 272 q 362 272 362 265 q 362 229 343 204 q 324 178 291 166 q 258 153 227 153 q 197 153 165 166 q 133 178 111 205 q 89 232 89 266 q 89 281 95 301 q 144 458 411 604 q 503 654 616 684 q 730 715 831 715 q 850 715 863 703 q 877 691 877 678 q 877 665 875 660 q 873 654 857 632 q 842 609 826 588 q 781 531 750 489 q 719 448 517 160 z m 310 -3 q 70 -152 70 -202 q 70 -213 87 -213 q 104 -213 131 -196 q 158 -179 182 -156 q 207 -133 234 -101 q 273 -54 310 -3 z"},"V":{"x_min":0,"x_max":668,"ha":668,"o":"m 801 691 l 785 688 q 779 688 779 694 q 779 701 783 703 q 830 730 873 730 q 892 730 902 716 q 912 701 912 677 q 912 653 878 593 q 844 533 788 457 q 731 381 644 291 q 557 201 469 132 q 382 63 313 28 q 244 -7 182 -7 q 143 -7 123 20 q 103 47 103 82 q 103 116 126 170 q 149 224 182 277 q 215 330 258 389 q 322 478 393 561 q 314 496 286 484 q 257 473 237 473 q 216 473 204 490 q 193 508 193 528 q 193 548 209 569 q 226 589 240 589 q 246 589 246 585 q 246 581 242 576 q 238 571 238 569 q 238 563 247 563 q 255 563 271 571 q 288 578 354 622 q 419 666 450 695 q 462 706 485 706 q 508 706 531 695 q 554 684 554 672 q 554 670 553 668 q 552 666 551 658 q 550 650 543 640 q 537 629 442 497 q 205 167 205 107 q 205 85 222 85 q 246 85 313 128 q 380 170 438 222 q 496 274 551 332 q 607 390 666 458 q 725 525 766 589 q 807 652 807 685 q 807 691 801 691 z"},"\"":{"x_min":0,"x_max":338,"ha":338,"o":"m 319 671 q 330 694 352 694 q 374 694 385 687 q 396 680 396 668 q 396 656 368 600 q 341 544 307 494 q 273 444 259 444 q 253 444 243 454 q 233 464 233 474 q 233 483 263 552 q 294 622 319 671 z m 400 445 q 362 445 362 473 q 362 486 405 570 q 448 654 450 669 q 454 692 491 692 q 528 692 528 672 q 528 646 499 590 q 470 534 438 489 q 407 445 400 445 z"},"7":{"x_min":0,"x_max":342,"ha":342,"o":"m 473 602 l 490 601 q 500 601 510 582 q 520 563 520 551 q 520 540 517 533 q 515 526 512 523 q 505 514 491 493 q 477 473 408 386 q 339 298 309 256 q 200 101 140 -15 q 135 -25 122 -25 l 103 -22 q 96 -22 84 -12 q 72 -1 72 5 q 72 11 73 15 q 73 19 75 24 q 78 29 80 33 q 87 50 92 60 q 109 100 176 195 q 243 291 318 385 q 393 479 432 514 l 167 488 q 157 488 157 495 q 157 502 164 516 q 170 529 171 532 q 173 537 208 561 q 208 562 216 570 q 223 579 234 583 q 245 588 333 595 q 422 601 473 602 z"},"S":{"x_min":0,"x_max":668,"ha":668,"o":"m 133 134 l 127 121 q 127 107 167 94 q 207 81 254 81 q 302 81 359 95 q 416 109 458 130 q 500 150 528 173 q 556 195 556 212 q 556 233 507 251 q 458 269 365 291 q 272 312 229 346 q 186 379 186 427 q 186 474 220 518 q 254 561 309 595 q 364 628 429 655 q 563 709 678 709 q 722 709 755 701 q 820 686 820 661 q 820 636 815 627 q 811 618 808 615 q 806 612 802 609 q 797 606 795 605 q 774 587 678 583 q 645 581 642 579 q 639 577 636 577 q 634 577 631 581 q 628 585 628 594 q 628 603 647 626 q 588 623 520 599 q 453 575 403 545 q 353 515 320 486 q 287 457 287 445 q 287 433 294 425 q 314 403 408 379 q 504 354 537 339 q 569 324 590 310 q 611 296 624 282 q 654 248 654 213 q 654 178 635 147 q 616 116 578 87 q 541 59 489 36 q 377 -14 222 -14 q 108 -14 77 46 q 69 61 69 77 q 69 94 76 107 q 84 120 95 127 q 116 140 125 140 q 133 140 133 134 z"},"}":{"x_min":0,"x_max":439,"ha":439,"o":"m 482 319 l 437 321 q 406 321 369 305 q 333 289 302 259 q 272 229 255 188 q 237 148 230 109 q 223 70 218 32 q 204 -60 168 -95 q 147 -117 115 -129 q 84 -141 54 -141 q -88 -141 -88 -90 q -88 -73 -74 -51 q -59 -29 -45 -29 q -31 -29 -21 -39 q 1 -62 32 -62 q 97 -62 110 4 q 170 324 345 383 q 321 401 309 416 q 297 431 297 453 q 297 475 314 506 q 331 538 355 567 q 380 596 404 624 q 462 693 462 734 q 462 753 453 764 q 444 774 430 774 q 416 774 367 760 q 318 746 307 746 q 296 746 296 755 q 296 790 307 808 q 317 826 345 830 q 347 830 366 833 l 403 840 q 454 848 481 848 q 507 848 522 833 q 549 805 549 767 q 549 729 533 695 q 517 660 494 631 q 472 602 449 574 q 394 507 393 462 q 393 442 411 429 q 429 416 450 411 q 472 406 490 395 q 509 384 509 367 q 509 351 499 335 q 489 319 482 319 z"},"Z":{"x_min":0,"x_max":615,"ha":615,"o":"m 304 686 q 304 665 426 665 q 484 665 570 671 q 656 676 674 683 q 691 689 704 698 q 717 708 723 715 q 738 733 763 733 q 789 733 809 723 q 830 714 830 698 q 830 681 815 664 q 801 647 786 636 q 770 625 751 614 q 732 603 729 600 q 727 598 705 579 q 613 502 414 313 q 216 125 172 81 q 226 93 315 105 q 405 118 482 118 q 559 118 600 101 q 642 85 642 45 q 642 26 633 6 q 625 -15 619 -15 q 617 -15 615 -9 q 613 -2 611 -1 q 588 14 529 14 q 469 14 329 3 q 188 -9 154 -13 q 120 -17 109 -17 q 78 -17 59 5 q 39 26 39 42 l 43 58 q 43 82 157 198 q 271 315 400 433 q 529 551 591 599 q 548 587 484 577 q 419 568 362 568 q 220 568 220 630 q 220 650 231 667 q 243 684 259 692 q 291 710 305 710 q 320 710 320 704 q 320 701 312 695 q 304 689 304 686 z"},"x":{"x_min":0,"x_max":371,"ha":371,"o":"m 386 440 q 393 444 403 444 q 414 444 431 431 q 447 419 447 410 q 447 401 441 396 q 435 390 396 355 q 358 320 309 275 q 259 229 230 203 q 226 156 226 106 q 226 56 239 56 q 268 60 308 102 q 322 117 337 132 q 351 148 354 151 q 357 153 362 153 q 371 153 373 143 q 375 133 375 114 q 375 94 373 89 q 360 62 311 22 q 263 -17 219 -17 q 148 -17 148 81 q 148 101 151 129 q 70 43 20 -20 q 16 -25 4 -25 q -8 -25 -23 -13 q -39 -1 -39 9 q -39 19 -37 25 q -31 44 26 106 q 83 168 157 232 q 155 274 155 297 q 155 319 153 319 q 150 319 135 305 q 119 291 110 291 q 102 291 94 307 q 87 322 87 329 q 87 351 125 385 q 162 419 193 419 q 202 419 217 410 q 231 401 232 390 q 235 339 235 305 q 312 389 386 440 z"},")":{"x_min":0,"x_max":366,"ha":366,"o":"m 400 657 l 396 756 q 396 781 401 792 q 406 803 453 803 q 465 803 473 756 q 480 708 480 628 q 480 547 456 449 q 432 351 392 262 q 352 173 298 91 q 244 9 187 -50 q 130 -109 70 -145 q 9 -180 -42 -180 q -56 -180 -64 -179 q -72 -177 -83 -167 q -103 -150 -103 -126 q -103 -117 -97 -112 q -90 -106 -83 -104 q -76 -103 -65 -102 q -8 -95 63 -38 q 133 18 191 95 q 250 172 297 263 q 344 354 372 458 q 400 562 400 657 z"},"&":{"x_min":0,"x_max":451,"ha":451,"o":"m 107 207 q 107 291 211 345 q 172 368 172 408 q 172 449 208 484 q 281 555 412 577 q 470 692 473 696 q 481 711 507 720 q 534 729 542 729 q 558 729 558 716 q 558 712 550 698 q 519 639 488 580 q 515 579 530 567 q 545 556 545 538 q 545 519 533 502 q 520 484 501 475 q 464 455 428 455 l 423 455 l 404 417 l 410 417 q 429 417 438 399 q 446 381 446 375 q 446 370 443 365 q 439 361 433 357 q 427 353 424 350 q 421 348 416 345 q 411 342 406 340 q 401 338 395 337 q 389 335 386 335 q 372 332 370 332 l 360 329 q 353 313 343 295 q 333 276 322 252 q 310 227 302 213 q 354 231 406 262 q 458 293 468 309 q 477 324 484 324 q 494 324 503 310 q 511 295 511 283 q 511 251 475 215 q 438 179 379 152 q 320 125 259 118 q 211 11 206 1 q 200 -8 186 -9 q 172 -11 167 -11 q 161 -11 153 -7 q 146 -3 145 0 q 144 3 142 8 q 140 13 140 20 q 140 27 186 120 q 149 128 128 151 q 107 174 107 207 z m 365 485 q 324 467 288 443 q 252 418 252 409 q 252 400 271 400 q 272 400 278 401 q 285 402 298 403 q 312 404 325 406 q 333 421 347 449 q 361 477 365 485 z m 271 296 q 202 262 202 221 q 202 199 221 197 q 230 213 246 247 q 263 281 271 296 z"},"_":{"x_min":0,"x_max":385,"ha":385,"o":"m -39 -136 l -46 -136 q -60 -136 -72 -130 q -84 -125 -84 -117 q -84 -109 -77 -103 q -70 -97 -68 -93 q -65 -83 -42 -71 q -20 -58 -2 -57 q 15 -56 55 -54 q 96 -52 179 -49 q 262 -46 294 -46 q 326 -46 332 -48 q 337 -50 345 -59 q 353 -69 359 -73 q 365 -77 365 -87 q 365 -96 353 -103 q 340 -109 308 -113 q 275 -116 230 -119 q 185 -122 131 -126 q 23 -135 -39 -136 z"},"v":{"x_min":0,"x_max":364,"ha":364,"o":"m 438 376 q 438 342 400 278 q 362 213 303 146 q 245 80 179 31 q 113 -17 76 -17 q 56 -17 39 -2 q 22 12 22 44 q 22 76 53 145 q 83 214 112 261 q 86 242 81 242 q 75 242 67 255 q 58 268 58 275 q 58 282 61 285 q 157 392 196 392 q 213 392 224 382 q 235 373 235 359 q 235 345 202 280 q 169 215 136 149 q 103 83 103 66 q 103 63 105 63 q 118 63 174 114 q 230 164 265 208 q 299 251 325 295 q 352 339 352 353 q 352 366 346 375 q 340 384 340 395 q 340 405 355 418 q 369 431 392 431 q 438 431 438 376 z"},"O":{"x_min":0,"x_max":638,"ha":638,"o":"m 431 62 q 324 -9 223 -9 q 188 -9 160 10 q 133 28 118 46 q 83 88 83 161 q 83 235 132 334 q 180 433 264 521 q 349 609 453 666 q 558 722 652 722 q 670 722 687 714 q 704 706 704 695 q 704 684 698 677 q 693 669 688 661 q 683 653 680 650 q 696 654 722 654 q 748 654 772 632 q 796 611 796 584 q 796 558 783 516 q 770 474 746 426 q 722 378 688 327 q 654 276 615 228 q 575 180 527 137 q 479 94 431 62 z m 540 428 q 540 418 533 418 q 526 418 504 442 q 483 466 483 482 q 483 520 533 567 q 584 615 646 640 q 578 636 487 582 q 397 528 329 451 q 261 375 219 292 q 178 209 178 157 q 178 125 192 103 q 206 80 240 80 q 274 80 322 104 q 370 127 415 165 q 571 297 659 459 q 695 525 695 551 q 695 561 688 561 q 668 561 631 535 q 595 510 566 479 q 538 448 538 435 z"},"(":{"x_min":0,"x_max":366,"ha":366,"o":"m 646 733 q 509 684 403 565 q 297 447 238 301 q 179 155 176 8 q 174 -50 182 -92 q 191 -133 193 -151 q 199 -186 181 -186 q 173 -186 157 -170 q 141 -153 125 -130 q 84 -71 84 -20 q 84 101 113 213 q 142 325 191 415 q 241 504 307 580 q 434 725 599 796 q 633 811 662 811 q 671 811 677 792 q 682 773 682 762 q 682 751 674 746 q 667 741 646 733 z"},"C":{"x_min":0,"x_max":568,"ha":568,"o":"m 565 285 q 577 285 577 266 q 577 247 569 201 q 562 170 499 113 q 421 45 329 16 q 273 -2 220 -2 q 167 -2 124 43 q 80 87 80 149 q 80 210 105 276 q 129 341 171 401 q 213 461 270 516 q 327 571 388 612 q 450 652 517 676 q 584 700 645 700 q 693 700 727 666 q 744 647 744 619 q 744 591 717 548 q 689 505 652 470 q 615 435 575 411 q 535 386 511 386 q 487 386 470 401 q 453 416 453 428 q 453 439 458 454 q 463 468 471 468 q 469 465 469 463 q 469 457 486 457 q 503 457 542 487 q 582 517 614 554 q 646 591 646 609 q 646 622 629 622 q 583 622 502 579 q 421 537 348 469 q 274 402 219 309 q 165 217 165 143 q 165 112 181 94 q 198 75 232 75 q 266 75 312 95 q 358 114 400 143 q 442 171 479 201 q 516 230 538 253 q 561 275 561 280 q 562 285 565 285 z"},"W":{"x_min":0,"x_max":896,"ha":896,"o":"m 963 676 q 958 676 958 683 q 958 690 962 693 q 966 695 976 700 q 986 705 990 707 q 994 708 1002 712 q 1011 716 1016 718 q 1021 719 1028 722 q 1041 725 1059 725 q 1077 725 1096 712 q 1116 700 1116 679 q 1116 637 1079 567 q 1042 497 983 421 q 925 345 853 267 q 781 189 712 127 q 643 66 582 27 q 521 -12 489 -12 q 419 -12 419 51 q 419 139 520 306 q 325 76 193 9 q 159 -9 141 -9 q 123 -9 97 13 q 71 36 71 57 q 71 179 240 397 q 304 481 400 584 q 316 511 272 511 q 249 511 238 534 q 228 551 228 566 q 228 581 247 598 q 267 616 270 616 q 273 616 276 613 q 279 611 279 609 q 272 602 272 599 q 272 597 278 597 q 284 597 376 653 q 468 709 477 709 q 502 709 525 695 q 549 681 549 672 q 549 662 539 646 q 529 631 423 493 q 316 356 268 285 q 220 215 197 170 q 175 125 175 115 q 175 105 178 105 q 198 105 324 229 q 451 353 565 473 q 679 594 689 607 q 699 621 711 626 q 723 632 746 632 q 812 632 812 607 q 812 597 783 563 q 754 530 743 515 q 682 438 607 296 q 532 155 532 116 q 532 105 539 105 q 546 105 581 133 q 616 160 673 215 q 730 270 803 351 q 875 432 942 531 q 1008 630 1008 655 q 1008 681 988 681 z"},"A":{"x_min":0,"x_max":587,"ha":587,"o":"m 682 685 q 697 719 704 719 l 706 719 q 713 719 736 703 q 758 688 758 674 q 758 655 633 379 q 508 103 490 70 q 472 36 465 25 q 458 14 446 0 q 425 -26 394 -26 q 381 -26 372 -29 q 362 -32 360 -32 q 344 -32 344 -25 q 344 -23 348 -13 q 353 -2 460 224 q 345 229 258 231 q 175 126 107 11 q 99 -5 91 -11 q 84 -18 71 -18 q 59 -18 44 -5 q 29 8 29 25 q 29 74 155 234 q 96 234 80 231 q 64 228 60 228 q 47 228 47 250 q 47 272 73 289 q 99 306 143 306 q 146 306 155 307 q 186 308 217 309 q 324 434 440 541 q 556 648 641 691 q 655 698 663 698 q 671 697 682 685 z m 648 616 q 470 481 322 309 q 409 307 497 302 q 586 489 648 616 z"},"f":{"x_min":0,"x_max":360,"ha":360,"o":"m 3 157 l -1 171 q -1 175 3 177 q 7 180 13 188 q 19 197 22 199 q 24 202 30 206 q 35 211 38 214 q 48 222 52 223 q 56 225 65 228 q 96 237 117 241 q 241 449 317 567 q 392 684 403 697 q 413 709 440 719 q 467 729 479 728 q 492 728 492 717 q 492 713 489 706 q 485 698 435 619 q 249 328 197 241 l 209 237 q 322 258 327 258 q 332 258 350 251 q 369 245 375 244 q 386 242 386 225 q 386 209 376 207 q 368 206 336 198 q 305 189 286 185 q 312 154 312 120 q 312 85 281 28 q 250 -29 202 -84 q 154 -140 102 -189 q 49 -239 1 -269 q -47 -300 -71 -300 q -94 -300 -112 -287 q -130 -275 -130 -250 q -130 -226 -120 -194 q -110 -161 -99 -134 q -87 -107 -59 -56 q -28 -1 51 131 q 37 128 30 128 q 22 128 16 132 q 10 135 7 141 q 3 150 3 157 z m 198 164 l 144 152 q 135 138 118 109 q 101 79 90 61 q 79 42 62 13 q 44 -17 33 -37 q 21 -57 8 -82 q -6 -107 -15 -125 q -24 -143 -33 -160 q -49 -194 -49 -205 q -49 -215 -43 -215 q -34 -215 -3 -193 q 27 -170 66 -133 q 104 -96 140 -53 q 177 -11 202 36 q 227 83 227 112 q 227 142 198 164 z"},"Q":{"x_min":0,"x_max":680,"ha":680,"o":"m 379 9 q 383 5 398 -6 q 412 -18 418 -23 q 424 -27 437 -38 q 450 -48 456 -52 q 463 -57 474 -65 q 485 -73 492 -76 q 500 -80 508 -84 q 524 -92 538 -92 q 552 -92 561 -88 q 570 -85 573 -81 q 577 -77 579 -73 q 582 -70 584 -70 q 590 -70 590 -77 q 590 -83 583 -95 q 577 -107 564 -120 q 551 -133 521 -146 q 490 -160 468 -160 q 386 -160 236 14 q 189 -8 151 -8 q 112 -8 81 27 q 50 61 50 115 q 50 169 88 249 q 158 399 277 509 q 483 698 656 698 q 734 698 773 660 q 813 622 813 567 q 813 513 790 451 q 767 389 725 323 q 683 257 630 196 q 577 135 510 85 q 444 35 379 9 z m 725 576 q 725 619 678 619 q 592 619 502 571 q 412 523 332 444 q 251 365 198 270 q 145 176 145 121 q 145 95 158 85 q 185 85 248 118 q 311 151 358 205 q 363 210 365 210 q 368 210 369 208 q 370 207 374 201 q 377 196 380 190 q 388 175 388 157 q 388 139 375 118 q 361 98 320 65 q 374 84 466 176 q 559 269 617 351 q 675 433 700 493 q 725 553 725 576 z"},"w":{"x_min":0,"x_max":554,"ha":554,"o":"m 538 363 l 532 386 q 532 406 546 418 q 560 429 581 429 q 622 429 622 377 q 622 339 584 273 q 547 207 497 145 q 446 83 390 38 q 333 -8 302 -8 q 272 -8 259 9 q 247 25 247 41 q 247 56 248 70 q 253 118 274 161 q 222 93 162 38 q 102 -16 62 -16 q 42 -16 30 -4 q 19 7 19 35 q 19 63 52 141 q 86 218 117 265 q 105 258 97 258 q 88 258 78 268 q 68 277 68 283 q 68 288 76 298 q 83 309 132 349 q 181 389 199 389 q 217 389 233 382 q 250 375 250 364 q 250 352 182 224 q 114 97 114 86 q 114 84 115 84 q 125 84 217 189 q 309 293 362 361 q 369 373 384 373 l 388 373 l 415 378 q 421 378 427 373 q 434 368 434 364 q 434 360 416 329 q 399 298 360 211 q 321 124 321 89 q 321 80 327 80 q 346 80 405 147 q 463 214 500 276 q 538 337 538 363 z"},"-":{"x_min":0,"x_max":317,"ha":317,"o":"m 104 195 l 102 195 q 92 194 83 200 q 73 207 73 216 q 73 225 78 232 q 83 240 85 248 q 87 255 103 270 q 119 285 130 286 q 141 287 168 289 q 196 291 224 293 q 252 295 278 295 q 304 295 308 293 q 312 290 317 280 q 322 269 327 264 q 331 259 331 248 q 331 237 322 229 q 313 221 302 219 q 292 218 278 216 q 264 214 247 213 q 230 211 215 209 q 200 207 181 203 q 143 196 104 195 z"},"E":{"x_min":0,"x_max":602,"ha":602,"o":"m 282 478 q 282 446 393 446 q 420 446 433 452 q 468 468 518 468 q 569 468 569 442 q 569 432 560 412 q 552 393 548 388 q 543 384 516 376 q 489 369 481 368 q 473 367 470 367 q 467 366 464 366 q 460 365 447 363 q 435 361 429 363 q 267 284 207 188 q 179 146 179 115 q 179 66 246 66 q 298 66 379 107 q 459 148 522 207 q 584 265 584 308 q 584 322 604 322 q 652 322 652 266 q 652 239 629 203 q 606 167 565 129 q 524 92 474 60 q 423 27 362 7 q 301 -14 258 -14 q 216 -14 190 -6 q 164 2 141 19 q 91 53 91 124 q 91 162 111 201 q 132 240 165 272 q 226 333 296 373 q 195 396 195 477 q 195 567 335 643 q 413 684 503 702 q 546 711 575 711 q 634 711 664 702 q 682 693 693 677 q 704 661 704 650 q 704 638 701 629 q 698 620 691 614 q 682 607 669 603 q 657 599 655 598 q 617 582 590 582 q 541 582 537 595 q 538 607 547 624 q 501 622 451 605 q 401 588 365 566 q 329 543 305 519 q 282 494 282 478 z"},"s":{"x_min":0,"x_max":368,"ha":368,"o":"m 84 98 l 83 90 q 83 78 93 69 q 102 60 110 60 q 168 60 214 78 q 259 95 259 113 q 259 121 242 127 q 226 133 187 142 q 148 151 131 156 q 113 162 103 166 q 93 170 82 178 q 59 194 59 226 q 59 258 83 290 q 106 321 142 344 q 178 366 219 383 q 300 417 355 417 q 409 417 422 394 q 426 385 426 375 l 426 372 q 426 346 415 331 q 404 316 380 305 q 356 293 343 293 q 329 293 325 295 q 321 297 319 300 q 316 303 313 305 q 309 306 309 312 q 309 318 314 324 q 319 330 321 337 q 289 335 253 322 q 218 309 193 292 q 168 275 151 260 q 135 245 135 238 q 135 231 157 227 q 258 207 290 192 q 322 177 334 159 q 346 140 346 125 q 346 94 321 66 q 296 38 260 21 q 181 -18 123 -18 q 64 -18 42 0 q 20 18 20 42 q 20 66 32 87 q 45 108 64 108 q 84 108 84 98 z"},">":{"x_min":0,"x_max":342,"ha":342,"o":"m 293 480 q 306 401 337 311 q 341 299 341 291 q 341 270 318 256 q 268 232 232 207 q 197 181 162 155 q 127 129 116 121 q 104 113 96 103 q 87 92 83 92 q 66 92 66 143 q 66 167 110 203 q 144 229 173 246 q 203 263 234 281 q 265 298 277 305 q 263 339 247 384 q 230 429 229 433 q 227 438 227 441 q 226 444 226 446 q 226 449 226 452 q 227 456 228 458 q 228 460 229 465 q 231 469 232 471 q 232 473 235 478 q 237 483 238 485 q 238 486 241 492 q 244 498 248 506 q 251 515 261 528 q 271 541 277 541 q 283 541 285 538 q 287 536 287 528 q 287 520 293 480 z"},"l":{"x_min":0,"x_max":258,"ha":258,"o":"m 295 344 q 210 235 132 149 q 131 143 128 127 q 124 111 124 95 q 124 79 139 66 q 154 53 176 53 q 198 53 223 69 q 248 84 267 104 q 315 154 327 154 q 339 154 339 118 l 339 108 q 339 89 332 81 q 291 30 240 6 q 188 -19 143 -19 q 97 -19 73 9 q 49 37 49 86 q 49 181 100 310 q 151 438 215 529 q 359 733 435 733 q 458 733 476 719 q 494 705 494 678 q 494 650 464 592 q 434 534 391 473 q 349 412 295 344 z m 413 652 q 413 659 408 659 q 391 659 318 562 q 246 464 213 406 q 181 348 152 260 q 209 328 311 473 q 413 618 413 652 z"},"8":{"x_min":0,"x_max":400,"ha":400,"o":"m 571 589 l 595 590 q 612 590 619 587 q 626 584 626 571 q 626 558 611 545 q 597 532 564 508 q 531 484 505 464 q 479 444 409 389 q 340 334 316 316 l 315 312 q 319 306 335 286 q 350 266 356 257 q 376 226 376 195 l 376 186 q 372 142 347 103 q 323 64 287 39 q 209 -15 124 -15 q 59 -15 27 20 q 10 40 10 68 q 12 105 34 144 q 57 182 88 214 q 144 271 209 316 q 185 358 185 406 q 185 410 186 419 q 194 467 223 511 q 252 556 296 584 q 340 612 386 612 q 448 612 468 571 q 473 559 473 554 q 473 548 460 512 q 463 515 505 545 q 565 589 571 589 z m 256 254 q 249 263 244 264 q 155 194 121 143 q 90 95 120 75 q 134 66 158 66 q 182 66 215 80 q 248 93 273 119 q 298 146 298 176 q 298 207 255 254 z m 426 486 q 404 526 368 526 q 332 526 298 496 q 265 465 265 421 q 265 398 277 365 q 341 419 426 486 z"},"\\":{"x_min":0,"x_max":378,"ha":378,"o":"m 201 781 q 201 790 215 790 q 229 790 262 766 q 295 741 301 719 q 348 552 360 365 q 371 214 371 25 q 371 -44 337 -82 q 302 -122 288 -122 q 273 -122 273 -104 q 273 -102 278 -9 q 283 83 283 130 q 283 401 230 686 q 225 713 213 744 q 201 774 201 781 z"},"e":{"x_min":0,"x_max":317,"ha":317,"o":"m 366 365 q 366 333 340 309 q 314 284 281 284 q 270 284 267 289 q 263 294 263 303 q 263 311 265 319 q 248 313 226 301 q 205 289 173 265 q 142 241 142 229 q 142 225 154 225 q 165 225 189 233 q 213 241 222 241 q 232 241 235 240 q 241 237 249 225 q 256 214 256 207 q 256 201 243 190 q 230 179 214 174 q 198 168 193 165 q 90 107 90 86 q 90 48 155 48 q 196 48 238 74 q 274 97 302 120 q 331 143 339 148 q 346 154 350 154 q 363 154 363 125 q 363 97 359 88 q 356 79 340 66 q 235 -19 142 -19 q 92 -19 62 -5 q 8 20 8 71 q 8 138 101 173 q 83 181 77 194 q 72 207 72 236 q 72 264 98 296 q 125 328 164 349 q 250 395 317 395 q 333 395 350 387 q 366 379 366 365 z"},"b":{"x_min":0,"x_max":373,"ha":373,"o":"m 432 697 q 329 542 231 373 q 254 385 282 390 q 310 395 322 395 q 333 395 341 394 q 350 394 363 389 q 375 384 385 376 q 407 356 407 319 q 407 283 387 239 q 368 195 334 151 q 300 107 260 70 q 219 32 173 8 q 126 -16 86 -16 q 68 -16 44 8 q 20 32 20 71 q 20 110 53 192 q 87 274 135 359 q 183 443 233 524 q 283 604 318 656 q 354 707 361 715 q 369 723 390 728 q 411 733 426 733 q 441 733 441 719 q 441 710 432 697 z m 300 228 q 320 263 320 292 q 320 321 302 321 q 284 321 246 305 q 208 289 203 289 q 197 289 188 298 q 93 126 93 79 q 93 57 107 57 q 141 57 205 114 q 268 170 300 228 z"},"%":{"x_min":0,"x_max":667,"ha":667,"o":"m 420 529 q 416 494 393 443 q 371 392 349 359 q 327 326 302 299 q 247 238 182 236 q 155 235 136 255 q 118 275 118 313 q 118 352 143 405 q 167 458 203 503 q 239 548 284 579 q 329 611 366 611 q 386 611 403 584 q 420 557 420 529 z m 187 322 q 187 304 196 304 q 222 304 251 331 q 281 358 303 395 q 326 432 341 472 q 356 511 356 529 q 356 547 350 547 q 331 547 291 508 q 252 468 219 413 q 187 358 187 322 z m 667 296 q 667 288 660 268 q 653 249 657 238 q 662 228 655 207 q 647 186 634 158 q 620 131 598 101 q 576 70 552 45 q 527 20 497 3 q 466 -13 437 -13 q 408 -13 390 7 q 372 27 372 65 q 372 103 396 156 q 419 208 455 254 q 490 299 534 330 q 578 362 615 362 q 636 362 651 342 q 667 323 667 296 z m 440 73 q 440 55 450 55 q 479 55 517 100 q 555 144 580 199 q 605 255 605 288 q 605 298 599 298 q 580 298 542 259 q 503 219 472 164 q 440 109 440 73 z m 644 610 q 652 610 652 594 q 652 578 652 573 q 651 568 650 563 q 650 558 649 556 q 649 554 647 549 q 646 543 645 540 q 637 523 539 414 q 351 204 204 11 q 202 8 198 1 q 190 -13 181 -13 q 161 -13 161 31 q 161 49 165 65 q 169 82 172 86 q 175 91 177 93 q 179 96 246 174 q 312 252 445 399 q 578 545 602 572 q 626 599 629 602 q 631 604 634 605 q 640 610 644 610 z"},"m":{"x_min":0,"x_max":608,"ha":608,"o":"m 30 -3 l 6 -2 l -2 -2 q -7 0 -13 4 q -19 8 -21 10 q -24 12 -24 17 q -24 22 -21 35 q 75 245 164 370 q 173 384 195 391 q 217 398 237 398 q 250 398 250 379 q 250 374 246 365 q 242 355 226 335 q 210 314 189 288 q 167 262 165 258 q 231 327 285 361 q 339 395 364 395 q 388 395 401 381 q 414 367 414 351 q 414 335 411 325 q 409 314 403 303 q 397 292 393 283 q 389 275 379 262 q 370 250 366 245 q 362 240 351 226 q 339 212 338 211 q 352 225 376 251 q 401 278 418 296 q 435 314 460 337 q 485 360 507 374 q 560 407 614 407 q 633 407 646 396 q 658 384 658 367 q 658 351 619 289 q 579 228 540 165 q 500 103 500 87 q 500 64 509 60 q 517 56 529 57 q 541 58 562 72 q 583 86 600 102 q 626 126 649 149 q 654 153 660 153 q 669 153 671 139 q 673 125 673 110 q 673 95 670 89 q 656 62 608 22 q 560 -18 515 -18 q 510 -18 507 -17 q 457 -12 438 10 q 418 33 418 64 q 418 96 440 140 q 461 185 486 221 q 512 257 533 286 q 554 315 554 317 q 554 320 550 320 q 535 320 483 271 q 394 188 329 110 q 312 89 248 6 q 240 -4 224 -4 q 208 -4 191 2 q 174 8 174 18 q 174 23 252 155 q 330 287 330 299 q 330 311 315 311 q 301 311 256 268 q 132 150 64 33 q 60 26 47 12 q 35 -3 30 -3 z"},"#":{"x_min":0,"x_max":543,"ha":543,"o":"m 146 34 q 146 19 138 19 q 130 19 121 32 q 113 44 109 61 q 106 77 106 85 q 106 93 111 105 q 115 118 121 127 q 126 137 135 154 q 145 170 149 178 l 112 178 q 98 178 83 183 q 68 188 68 198 q 68 202 76 208 q 84 213 87 220 q 90 226 114 239 q 138 251 157 251 q 176 251 195 253 q 202 264 214 285 q 240 333 257 356 q 229 355 212 355 q 194 355 181 360 q 167 365 167 375 q 167 378 174 383 q 181 388 182 392 q 186 400 206 410 q 226 419 240 420 l 303 423 q 324 451 358 502 q 392 554 403 570 q 415 586 419 586 q 423 586 430 571 q 437 556 437 546 q 437 537 428 519 q 418 501 377 426 l 448 428 l 536 564 q 542 570 544 570 q 549 570 560 552 q 570 535 570 517 q 570 498 530 430 l 544 430 q 572 430 579 428 q 586 427 593 419 q 600 411 604 408 q 611 402 611 395 q 611 388 600 383 q 588 377 574 376 q 561 376 497 371 l 429 260 l 468 260 q 502 260 509 258 q 515 257 523 248 q 531 240 538 235 q 544 231 544 223 q 544 214 531 208 q 518 202 500 200 q 482 199 393 194 q 347 104 337 57 l 337 51 q 337 42 331 42 q 324 42 313 55 q 303 69 295 88 q 286 107 286 120 q 286 133 311 188 q 291 187 222 181 q 165 83 146 34 z m 409 367 l 335 361 q 331 354 308 315 q 284 275 271 255 q 271 255 280 255 q 289 256 345 258 q 377 317 409 367 z"},",":{"x_min":0,"x_max":238,"ha":238,"o":"m 83 -7 q 76 0 76 17 q 76 33 94 53 q 113 72 139 72 q 165 72 177 58 q 189 44 189 21 q 189 -2 173 -24 q 156 -46 124 -70 q 91 -94 76 -94 q 60 -94 54 -88 q 48 -83 44 -82 q 41 -81 41 -73 q 41 -65 45 -62 q 49 -60 65 -37 q 81 -14 83 -7 z"},"n":{"x_min":0,"x_max":391,"ha":391,"o":"m 285 75 q 285 54 314 54 q 330 54 354 69 q 377 85 396 104 q 447 154 454 154 q 467 154 467 117 q 467 81 444 67 q 374 4 336 -10 q 314 -17 289 -17 q 263 -16 237 6 q 212 28 212 59 q 212 91 229 131 q 245 171 262 199 q 280 228 305 266 q 331 304 332 313 l 331 314 q 315 312 251 250 q 188 188 146 143 q 104 97 47 20 q 31 -1 21 -1 q 10 -1 -7 6 q -24 12 -28 15 q -32 18 -32 24 q -32 30 -29 38 q -25 47 -22 52 q -19 58 -12 70 q -4 82 17 119 q 39 157 84 232 q 129 308 138 323 q 156 355 168 370 q 190 398 242 398 q 254 398 254 383 q 254 360 211 297 l 191 266 q 275 360 333 385 q 362 397 385 397 q 407 397 421 385 q 434 373 434 358 q 434 343 424 322 q 414 301 403 285 q 393 269 375 244 q 358 219 357 217 q 355 214 349 205 q 343 195 340 191 q 337 187 331 176 q 324 165 320 157 q 315 150 309 139 q 303 128 300 121 q 296 113 292 104 q 285 86 285 75 z"},"h":{"x_min":0,"x_max":393,"ha":393,"o":"m 460 144 q 463 122 463 109 q 463 96 459 86 q 454 77 438 59 q 422 42 400 24 q 347 -18 291 -18 q 210 -18 210 53 q 210 115 318 300 q 322 307 323 310 q 286 284 179 166 q 73 49 38 0 q 35 -4 23 -10 q 12 -15 5 -15 q -1 -15 -9 -11 q -17 -7 -19 -7 q -25 -7 -25 -3 q -25 1 -8 42 q 10 83 38 144 q 116 311 269 578 q 323 672 353 711 q 375 739 425 739 q 436 739 438 732 q 439 726 439 719 q 439 711 436 704 l 384 623 q 229 380 150 221 q 226 314 298 364 q 342 396 365 396 q 387 396 405 389 q 423 382 423 355 q 423 345 391 283 q 296 95 296 74 q 296 54 313 54 q 338 54 390 102 q 429 139 439 149 q 445 153 450 153 q 459 153 460 144 z"},"z":{"x_min":0,"x_max":359,"ha":359,"o":"m 255 312 q 97 302 70 297 l 69 297 q 59 297 59 310 q 59 322 74 344 q 89 366 112 373 q 134 380 162 380 q 273 382 351 394 q 352 394 365 399 q 378 404 388 404 q 397 404 406 393 q 415 382 415 366 q 415 349 406 340 q 397 332 374 325 q 160 158 108 69 q 125 74 190 86 q 362 118 378 135 q 383 140 389 140 q 396 140 403 135 q 410 130 410 93 q 410 82 400 66 q 390 50 377 44 q 364 39 236 17 q 65 -13 51 -13 q 36 -13 32 -13 q 28 -12 25 -12 q 22 -11 20 -10 q 17 -9 16 -9 q 14 -8 12 -7 q 10 -5 10 -5 q 9 -4 3 1 q -2 6 -2 26 q -2 47 0 51 q 23 96 60 138 q 97 181 126 206 q 155 231 198 265 q 241 299 255 312 z"},"B":{"x_min":0,"x_max":684,"ha":684,"o":"m 275 500 l 290 503 q 292 503 292 498 q 292 492 276 479 q 259 467 235 467 q 211 467 198 480 q 185 494 185 516 q 185 562 245 608 q 306 654 394 681 q 482 709 563 709 q 682 709 740 670 q 798 632 798 567 q 798 484 683 406 q 622 365 552 341 q 629 333 675 291 q 709 260 709 211 q 709 163 663 113 q 617 63 541 30 q 464 -3 384 -3 q 292 -3 248 38 q 229 56 229 71 q 229 85 236 101 q 200 37 184 4 q 176 -11 154 -11 q 132 -11 120 1 q 107 13 107 27 q 107 42 112 53 q 134 111 267 323 q 400 535 430 569 q 445 588 500 588 q 522 588 522 578 q 522 571 458 468 q 393 366 390 361 q 458 380 529 414 q 600 448 653 491 q 706 534 706 569 q 706 626 582 626 q 452 626 332 557 q 302 540 286 526 q 271 512 271 506 q 271 500 275 500 z m 363 267 q 354 267 344 287 q 297 213 247 122 q 270 154 313 154 q 343 154 343 146 q 343 144 336 141 q 317 134 317 119 q 317 84 392 84 q 493 84 575 154 q 619 191 619 219 q 619 236 583 257 q 542 280 457 280 q 397 280 381 273 q 364 267 363 267 z"},"K":{"x_min":0,"x_max":717,"ha":717,"o":"m 837 707 l 854 702 q 917 693 917 665 q 917 657 911 652 q 845 593 735 524 q 568 420 356 323 q 426 284 544 192 q 704 74 740 74 q 753 74 762 81 q 771 88 772 88 q 780 88 780 81 q 780 74 764 42 q 748 9 736 -1 q 725 -11 700 -11 q 675 -11 633 13 q 592 38 543 74 q 494 111 445 149 q 321 245 278 262 q 128 25 124 17 q 120 8 113 3 q 106 -2 104 -2 l 83 -5 l 66 -4 q 60 -4 57 -6 q 54 -8 50 -9 q 47 -10 44 -12 q 42 -15 37 -15 q 32 -15 23 -7 q 14 1 14 7 q 14 13 21 28 q 28 42 201 300 l 191 300 q 159 300 159 318 q 159 335 175 353 q 191 371 208 371 q 225 371 245 368 q 337 504 387 582 q 330 529 279 529 q 255 529 241 546 q 227 562 227 584 q 227 605 238 619 q 249 633 259 638 q 269 644 273 644 q 277 644 277 640 l 273 628 q 273 621 294 621 q 315 621 353 644 q 390 667 426 691 q 462 714 480 714 q 499 714 504 710 q 510 706 514 704 q 519 703 522 701 q 525 698 527 695 q 529 691 534 687 q 540 682 540 675 q 540 667 536 661 q 474 567 383 425 q 504 488 660 586 q 816 685 829 702 q 832 707 837 707 z"},"R":{"x_min":0,"x_max":733,"ha":733,"o":"m 313 501 q 320 501 320 493 q 320 490 318 488 q 277 447 223 447 q 210 447 195 461 q 179 476 179 503 q 179 530 212 564 q 246 597 305 627 q 364 657 453 681 q 542 704 613 704 q 684 704 729 693 q 774 681 800 664 q 826 647 842 626 q 870 591 870 555 q 870 519 847 480 q 823 441 786 411 q 749 381 700 355 q 610 308 507 285 q 524 267 581 195 q 638 122 685 73 q 732 24 758 24 l 774 30 q 780 30 780 26 q 780 22 762 2 q 744 -18 731 -28 q 718 -38 695 -38 q 672 -38 644 -16 q 615 6 581 46 q 546 86 519 121 q 492 157 457 205 q 421 253 408 270 q 403 262 383 231 q 363 200 354 186 q 345 171 327 143 q 310 115 300 98 q 273 52 262 30 q 252 7 228 7 l 211 8 l 196 7 q 166 7 166 33 q 166 52 182 87 q 199 123 356 351 q 513 580 529 595 q 545 611 553 613 q 559 617 561 617 l 570 616 l 578 617 q 583 617 586 614 q 589 610 591 609 q 611 594 611 583 q 611 573 606 564 q 601 554 578 521 q 555 488 518 435 q 480 382 464 358 q 504 360 560 382 q 616 405 665 436 q 714 468 749 505 q 784 542 784 569 q 784 583 769 595 q 754 607 731 614 q 685 628 627 628 q 570 628 481 603 q 393 578 353 555 q 312 533 294 517 q 276 501 276 495 q 276 491 286 491 q 296 491 304 496 q 312 501 313 501 z"},"T":{"x_min":0,"x_max":567,"ha":567,"o":"m 260 155 l 258 145 q 258 142 260 140 q 263 137 267 137 q 271 137 273 141 q 346 238 394 311 q 442 385 464 419 q 486 454 500 475 q 535 528 569 571 q 438 538 363 538 q 288 538 255 547 q 223 557 212 569 q 202 581 202 593 q 202 605 203 617 q 205 642 233 657 q 260 673 278 673 q 296 673 296 667 q 296 662 288 653 q 280 644 280 641 q 280 625 393 625 q 506 625 652 655 q 736 723 797 723 q 838 723 851 700 q 860 687 860 673 q 860 659 844 646 q 828 632 801 622 q 752 604 686 594 q 658 559 607 483 q 556 408 538 382 q 519 355 478 288 q 437 221 406 172 q 376 123 342 75 q 272 -24 217 -24 q 194 -24 178 -12 q 161 0 161 28 q 161 56 192 97 q 222 138 236 150 q 250 162 255 162 q 260 162 260 155 z"},"P":{"x_min":0,"x_max":722,"ha":722,"o":"m 301 524 q 285 512 285 498 q 285 483 307 483 q 316 483 331 489 l 331 489 q 333 489 333 479 q 333 469 332 467 q 281 431 247 431 q 212 431 196 451 q 181 470 181 502 q 181 533 215 569 q 250 604 309 634 q 367 664 454 684 q 541 703 649 703 q 757 703 830 661 q 902 619 902 565 q 902 511 865 455 q 827 399 770 358 q 713 317 644 291 q 574 264 520 264 q 465 264 435 308 q 360 191 334 149 q 308 106 289 77 q 271 48 261 31 q 251 15 250 14 q 240 3 229 3 l 205 -1 l 193 0 l 185 0 q 156 0 156 18 q 156 41 252 190 q 348 340 433 462 q 519 584 533 600 q 547 615 558 617 q 569 620 593 620 l 618 620 q 624 620 624 610 q 624 600 622 596 q 579 536 466 359 q 470 351 479 349 q 488 347 499 347 l 513 347 q 558 347 610 369 q 662 391 702 421 q 741 451 768 484 q 794 517 794 541 q 794 564 780 583 q 765 601 740 612 q 690 633 619 633 q 548 633 448 596 q 347 559 301 524 z"},"|":{"x_min":0,"x_max":375,"ha":375,"o":"m 549 821 l 570 822 q 580 822 580 814 q 580 812 548 756 q 517 699 345 379 q 174 58 98 -94 q 92 -106 84 -109 q 62 -120 53 -120 l 41 -124 q 38 -124 30 -121 q 21 -118 21 -115 q 20 -112 20 -103 q 20 -93 21 -92 q 30 -48 258 374 q 485 796 510 818 q 514 823 522 823 z"},"t":{"x_min":0,"x_max":215,"ha":215,"o":"m 366 629 l 386 624 q 391 624 394 620 q 397 615 397 611 q 397 607 387 590 q 377 573 363 552 q 349 530 348 528 q 386 531 402 531 q 418 531 424 529 q 430 526 437 516 q 445 506 451 501 q 458 496 458 486 q 458 476 445 469 q 433 461 418 460 q 305 449 293 448 q 254 388 183 260 q 112 131 107 99 q 105 84 105 75 q 105 56 125 56 q 146 56 170 72 q 194 87 215 105 q 270 154 273 154 q 286 154 286 110 q 286 86 264 67 q 215 24 181 3 q 147 -19 114 -19 q 106 -19 100 -17 q 61 -10 43 11 q 24 33 25 69 q 25 105 46 156 q 67 208 100 266 q 152 361 205 444 l 187 441 q 130 435 121 435 l 116 435 q 102 435 89 441 q 76 446 76 455 q 76 463 83 471 q 90 479 91 483 q 95 494 117 507 q 139 520 150 521 q 162 521 172 522 q 183 522 196 523 q 208 523 215 524 l 259 526 q 300 587 316 605 q 331 623 333 624 q 336 626 343 626 z"},"M":{"x_min":0,"x_max":772,"ha":772,"o":"m 777 180 l 781 162 q 781 150 769 134 q 737 92 666 37 q 595 -17 561 -17 q 527 -17 508 3 q 489 22 489 48 q 489 78 553 182 q 648 335 796 541 q 765 509 630 367 q 332 55 281 13 q 273 6 257 6 q 241 6 224 19 q 206 32 206 48 l 206 51 q 208 71 300 251 q 393 432 455 538 q 363 437 269 312 q 89 74 6 -93 q -1 -108 -12 -108 q -22 -108 -43 -103 q -86 -91 -86 -62 q -86 -44 -14 64 q 58 172 152 300 q 247 428 349 547 q 489 711 529 711 q 535 711 541 708 q 547 705 548 705 q 550 705 551 706 q 558 714 576 714 q 595 714 613 707 q 631 699 631 690 q 631 684 582 597 q 418 307 362 198 q 416 263 516 371 q 616 478 726 585 q 869 724 896 724 q 908 724 925 719 q 955 710 983 710 q 991 708 996 703 q 1002 698 1002 693 q 1002 688 999 684 q 840 473 731 312 q 623 151 597 94 q 648 105 750 217 q 754 223 756 225 q 758 227 760 229 q 768 238 772 216 q 774 204 775 198 q 776 193 777 188 q 777 182 777 180 z"},"g":{"x_min":0,"x_max":418,"ha":418,"o":"m 396 373 q 415 395 443 396 q 452 397 464 397 q 476 397 479 394 q 482 391 484 382 q 487 373 487 372 q 488 371 488 369 q 488 367 485 364 q 483 360 480 357 q 477 354 476 354 q 368 199 255 1 q 372 104 463 149 q 469 152 475 152 q 482 152 485 142 q 487 132 487 113 q 487 95 485 90 q 483 86 462 73 q 442 60 409 39 q 376 18 340 -8 q 252 -69 195 -136 q 122 -225 90 -279 q 79 -300 51 -300 q -4 -300 -4 -248 q -4 -194 48 -139 q 87 -97 120 -71 q 152 -44 155 -41 q 191 13 253 113 q 201 58 151 25 q 102 -8 77 -8 q 2 -8 2 56 q 2 107 28 159 q 54 210 95 251 q 135 292 182 324 q 229 357 275 375 q 320 392 354 392 q 387 392 396 373 z m 368 337 q 312 325 262 297 q 212 269 180 237 q 147 205 124 171 q 80 108 80 73 q 80 65 84 65 q 88 65 103 74 q 117 83 144 104 q 170 125 202 154 q 277 223 368 337 z"},"j":{"x_min":0,"x_max":221,"ha":221,"o":"m 388 543 q 388 511 353 480 q 318 449 286 449 q 263 449 263 477 q 263 505 295 536 q 328 567 358 567 q 388 567 388 543 z m 279 142 q 286 110 279 89 q 276 85 242 66 q 208 47 165 22 q 122 -3 69 -42 q 17 -81 -18 -119 q -39 -160 -76 -206 q -149 -294 -197 -294 q -217 -294 -230 -281 q -244 -269 -244 -250 q -244 -230 -235 -214 q -225 -198 -203 -176 q -180 -154 -164 -140 q -148 -125 -113 -97 q -78 -69 -65 -58 q -44 -22 -11 35 q 22 92 42 125 q 98 218 130 264 q 127 265 119 264 q 111 263 105 263 q 100 263 94 269 q 87 274 85 286 q 83 303 141 344 q 200 384 221 384 q 258 384 258 347 q 258 343 254 332 q 250 321 170 191 q 90 62 60 15 q 64 18 87 35 q 109 51 134 69 q 159 87 186 106 q 248 149 258 149 q 266 155 272 153 q 278 151 279 142 z"},"i":{"x_min":0,"x_max":203,"ha":203,"o":"m 348 536 q 348 508 322 480 q 296 452 268 452 q 240 452 240 481 q 240 511 265 537 q 290 564 319 564 q 333 564 340 557 q 348 549 348 536 z m 269 110 q 269 95 266 89 q 242 40 190 10 q 138 -20 99 -20 q 61 -20 33 6 q 5 32 5 59 q 5 85 32 137 q 59 188 85 231 q 112 275 112 279 q 112 282 102 293 q 92 304 92 309 q 92 314 113 336 q 133 357 162 379 q 191 400 206 400 q 222 400 234 386 q 246 373 246 361 q 246 350 130 150 q 128 147 122 137 q 115 127 112 120 q 108 114 103 104 q 93 85 93 72 q 93 55 116 55 q 138 55 162 71 q 187 86 204 104 q 250 154 256 154 q 269 154 269 110 z"},"y":{"x_min":0,"x_max":390,"ha":390,"o":"m 178 -162 q 176 -165 163 -187 q 151 -209 137 -232 q 123 -254 102 -275 q 81 -295 67 -297 q 53 -299 49 -299 q 4 -299 4 -253 q 4 -200 60 -129 q 81 -102 112 -71 q 144 -40 147 -36 q 150 -32 220 101 q 173 50 133 18 q 93 -14 56 -18 l 53 -18 q 34 -18 15 -6 q -3 7 -3 38 q -3 84 21 128 q 30 143 52 179 q 74 215 92 249 q 110 276 128 312 q 147 347 157 363 q 167 378 175 378 q 184 378 198 367 q 212 356 212 341 q 212 326 148 209 q 84 93 84 77 q 84 73 88 73 q 101 73 146 111 q 191 148 246 207 q 307 271 342 325 q 346 332 349 336 q 352 339 356 345 q 360 352 363 355 q 365 358 369 363 q 373 368 375 370 q 378 373 382 375 q 387 380 394 380 q 400 380 414 377 q 427 374 430 371 q 433 367 436 364 q 440 359 440 354 q 440 350 437 342 q 433 334 391 265 q 269 59 223 -36 q 297 26 432 149 q 438 153 443 153 q 458 153 458 107 q 458 93 453 89 q 307 -23 178 -162 z"},"@":{"x_min":0,"x_max":718,"ha":718,"o":"m 592 485 q 607 508 640 508 q 672 508 672 486 q 672 474 667 468 q 661 461 643 432 q 624 403 602 353 q 579 303 579 275 q 579 248 592 248 q 612 248 653 302 q 693 355 728 428 q 762 500 762 546 q 762 569 752 586 q 742 604 728 612 q 700 628 685 628 q 616 628 532 597 q 448 565 377 500 q 192 331 192 182 q 192 154 208 126 q 224 98 256 77 q 289 57 331 57 q 433 57 547 132 q 548 133 549 135 q 550 136 551 136 q 564 136 564 116 l 564 104 q 564 101 564 99 q 562 91 560 79 q 553 44 484 11 q 414 -21 313 -21 q 190 -21 131 67 q 98 118 98 181 q 98 245 124 312 q 150 379 194 437 q 238 495 298 546 q 358 598 424 635 q 568 714 702 714 q 733 714 761 698 q 790 682 809 659 q 850 607 850 568 q 850 529 840 488 q 829 446 811 403 q 792 359 766 317 q 739 275 709 243 q 680 210 644 190 q 608 170 575 170 q 542 170 526 191 q 510 211 510 236 q 510 261 518 282 q 483 235 437 203 q 392 171 360 171 q 328 171 307 196 q 287 220 287 253 q 287 287 304 326 q 322 365 351 398 q 380 430 414 456 q 487 512 546 512 q 568 512 578 505 q 587 498 592 485 z m 574 461 q 538 462 487 424 q 437 386 400 336 q 364 287 364 255 q 364 245 373 245 q 394 245 425 273 q 456 300 480 333 q 504 366 534 407 q 563 448 574 461 z"},".":{"x_min":0,"x_max":232,"ha":232,"o":"m 143 81 q 183 81 183 48 q 183 21 160 -5 q 137 -31 108 -31 q 73 -31 73 5 q 73 35 97 58 q 120 81 143 81 z"},"p":{"x_min":0,"x_max":391,"ha":391,"o":"m 302 520 l 311 521 q 318 521 323 508 q 327 495 327 491 q 327 486 317 474 l 178 262 q 251 335 327 369 q 356 382 380 382 q 404 382 418 366 q 433 351 433 328 q 433 305 420 271 q 407 238 385 200 q 364 162 333 123 q 302 84 268 53 q 234 22 194 2 q 154 -17 124 -17 q 62 -17 62 39 q 5 -48 -69 -168 q -144 -288 -149 -294 q -155 -301 -158 -301 q -162 -301 -170 -297 q -177 -292 -186 -282 q -194 -272 -194 -252 q -194 -233 -183 -213 q -117 -103 72 200 q 260 504 275 514 q 284 520 293 520 z m 345 295 q 345 305 335 305 q 309 305 224 224 q 139 143 88 76 q 101 61 126 61 q 151 61 190 87 q 230 114 264 151 q 297 188 321 229 q 345 269 345 295 z"},"X":{"x_min":0,"x_max":589,"ha":589,"o":"m 22 -9 l 19 -10 q 16 -10 5 0 q -5 9 -8 11 q -10 14 -14 16 q -17 19 -18 20 q -20 21 -21 22 q -23 24 -24 26 q -25 27 -26 28 q -27 31 -27 37 q -27 42 -24 53 q -19 70 76 147 q 171 225 352 365 q 359 392 369 430 q 379 468 385 491 q 392 514 398 539 q 410 586 410 593 q 410 600 406 600 q 388 600 325 544 q 262 488 262 471 q 262 460 254 460 q 249 460 238 471 q 228 483 226 492 q 225 502 224 509 q 221 524 221 533 q 221 558 268 602 q 315 646 371 679 q 428 712 453 712 q 479 712 494 694 q 509 677 509 644 q 509 610 467 455 q 741 666 756 674 q 771 683 800 683 q 829 683 859 671 q 869 667 869 661 q 869 655 865 649 q 861 644 852 636 q 842 629 813 608 q 785 587 744 558 q 650 488 431 318 q 384 138 384 85 q 384 71 387 71 q 391 71 396 75 q 425 92 490 150 q 556 207 569 222 q 582 238 587 237 q 594 237 594 220 l 594 211 q 594 211 598 198 q 603 184 603 166 q 603 148 596 138 q 589 127 576 112 q 562 96 539 73 q 515 51 488 31 q 422 -17 364 -17 q 337 -17 315 4 q 293 25 293 71 q 293 117 318 226 q 39 -8 36 -10 q 32 -11 29 -11 z"},"*":{"x_min":0,"x_max":366,"ha":366,"o":"m 360 491 q 311 408 300 408 q 294 408 285 415 q 275 422 274 429 q 273 436 305 496 q 248 485 231 485 q 213 485 213 493 q 213 532 314 565 l 298 586 q 287 593 278 609 q 270 625 270 636 q 270 648 276 657 q 282 667 296 667 q 309 667 333 638 l 362 598 q 379 629 392 662 q 403 687 432 687 q 445 687 451 683 q 458 678 458 670 q 458 663 422 598 q 489 613 500 622 q 504 630 510 630 q 515 630 519 621 q 522 611 522 605 q 522 554 422 525 q 439 504 446 490 q 453 477 453 458 q 453 438 445 423 q 437 408 423 408 q 410 408 401 426 q 381 457 360 491 z"},"Y":{"x_min":0,"x_max":665,"ha":665,"o":"m 822 678 l 840 679 q 849 679 859 672 q 870 665 870 659 q 867 648 754 463 q 402 -116 367 -190 q 385 -171 406 -153 q 428 -134 431 -134 q 434 -134 437 -137 q 439 -141 439 -144 q 439 -147 435 -152 q 431 -157 405 -191 q 378 -225 366 -239 q 353 -253 343 -270 q 333 -286 326 -293 q 319 -300 309 -300 q 279 -300 259 -274 q 238 -249 238 -231 q 238 -197 384 36 q 529 268 640 426 q 383 123 231 28 q 179 -5 146 -5 q 129 -5 114 4 q 98 14 91 28 q 83 42 83 78 q 83 115 115 183 q 146 251 195 329 q 283 467 356 566 q 291 507 250 507 q 230 507 224 512 q 218 518 208 530 q 197 542 197 556 q 197 571 202 579 q 208 587 212 592 q 229 608 233 611 q 238 614 245 614 q 252 614 252 612 q 252 610 247 605 q 242 601 242 599 q 242 596 248 596 q 253 596 261 599 q 270 602 283 609 q 296 616 307 622 q 318 628 340 641 q 362 654 374 660 q 385 667 407 683 q 430 699 440 705 q 458 716 470 711 q 481 707 488 706 q 495 704 500 701 q 505 699 509 695 q 524 685 524 670 q 524 656 510 637 q 497 618 448 547 q 400 476 339 384 q 278 292 232 211 q 186 130 186 109 q 186 102 190 102 q 194 102 219 121 q 350 222 552 438 q 719 615 749 657 q 758 670 767 674 q 776 679 794 679 z"},"c":{"x_min":0,"x_max":365,"ha":365,"o":"m 414 153 q 423 153 423 131 q 423 109 402 83 q 380 58 348 40 q 315 22 279 9 q 206 -18 155 -18 q 104 -18 63 15 q 22 49 22 103 q 22 157 49 211 q 76 265 118 305 q 160 346 216 372 q 272 397 327 397 q 353 397 374 382 q 395 367 395 340 q 395 314 369 277 q 343 240 316 240 q 285 240 285 270 q 285 278 299 298 q 314 318 314 325 q 314 332 309 332 q 282 332 251 313 q 220 295 195 274 q 170 254 147 229 q 99 173 99 114 q 99 90 114 73 q 129 55 166 55 q 202 55 239 64 q 275 72 299 82 q 323 92 348 108 q 373 125 380 131 q 388 137 397 145 q 407 153 414 153 z"},"/":{"x_min":0,"x_max":378,"ha":378,"o":"m 665 758 q 665 757 665 752 q 665 748 665 745 q 663 726 652 709 q 595 625 399 415 q 320 331 240 242 q 49 33 -31 -98 q -32 -101 -35 -108 q -41 -122 -51 -122 q -62 -122 -70 -102 q -78 -82 -78 -55 q -78 -28 -74 -15 q -71 -2 -40 43 q -8 87 57 167 q 123 247 203 333 q 282 420 347 488 q 412 556 502 649 q 592 742 614 765 q 636 788 639 791 q 641 793 643 794 q 648 799 652 799 q 665 799 665 758 z"},"[":{"x_min":0,"x_max":366,"ha":366,"o":"m 548 735 l 478 738 q 278 293 101 -37 q 90 -53 90 -58 q 91 -61 95 -61 l 101 -60 q 131 -62 153 -62 q 174 -62 190 -60 q 206 -58 220 -55 q 234 -52 240 -52 q 252 -52 252 -62 q 252 -82 222 -103 q 192 -124 158 -136 q 108 -155 61 -155 q 42 -155 27 -140 q 0 -112 0 -70 q 0 -46 22 -2 q 45 42 158 272 q 271 503 300 559 q 329 614 341 639 q 354 664 365 688 q 375 712 381 723 q 386 735 399 765 q 412 795 417 807 q 421 818 437 825 q 452 832 464 834 l 606 826 l 630 828 q 647 828 647 796 q 647 744 621 740 q 582 735 548 735 z"},"6":{"x_min":0,"x_max":411,"ha":411,"o":"m 212 305 q 305 369 359 369 q 383 369 404 352 q 424 335 425 301 q 426 267 408 223 q 391 179 359 137 q 327 95 288 60 q 249 25 200 3 q 152 -18 106 -18 q 78 -18 57 4 q 37 27 37 64 q 37 69 37 72 q 50 212 192 393 q 236 448 290 493 q 345 539 391 564 q 488 618 524 618 q 564 618 564 572 q 564 551 555 548 q 454 515 372 458 q 290 400 212 305 z m 310 298 q 281 298 235 273 q 188 249 162 225 q 111 130 111 80 q 111 55 127 55 q 143 55 177 74 q 210 94 250 130 q 289 167 314 206 q 340 245 339 264 q 339 284 330 291 q 321 298 310 298 z"},"r":{"x_min":0,"x_max":349,"ha":349,"o":"m 190 266 q 305 397 386 397 q 406 397 419 385 q 432 373 432 354 q 432 335 405 290 q 378 246 355 215 q 343 199 327 199 q 312 199 303 210 q 295 222 295 237 q 295 271 331 313 l 330 314 q 314 312 250 250 q 187 188 142 139 q 97 90 45 20 q 30 -1 19 -1 q 9 -1 -9 6 q -26 12 -30 15 q -33 18 -33 25 q -33 32 -29 41 q -25 50 -15 66 q -4 83 17 120 q 38 157 83 232 q 128 308 137 323 q 155 355 167 370 q 189 398 241 398 q 253 398 253 383 q 253 360 210 297 z"},"2":{"x_min":0,"x_max":376,"ha":376,"o":"m 130 80 q 256 105 305 105 q 323 105 326 94 q 327 89 331 87 q 334 85 339 68 q 343 51 343 40 l 343 36 q 343 19 331 16 q 284 6 178 -1 q 72 -9 52 -12 q 42 -12 20 -1 q 15 3 10 15 q 5 26 5 34 q 5 42 14 61 q 16 64 75 130 q 90 146 152 200 q 213 254 238 281 q 262 309 322 372 q 383 435 412 469 q 441 504 441 519 q 441 528 427 528 q 413 528 393 520 q 373 511 346 494 q 283 454 225 372 q 222 370 222 362 q 218 352 205 346 q 192 339 185 339 q 177 339 165 344 q 153 350 147 355 q 141 360 141 375 q 141 391 158 419 q 175 447 206 478 q 237 510 275 538 q 312 566 359 584 q 406 603 439 603 q 472 603 487 589 q 516 562 516 530 q 516 498 486 451 q 455 404 403 348 q 351 292 304 246 q 258 200 201 147 q 145 94 130 80 z"},"{":{"x_min":0,"x_max":439,"ha":439,"o":"m 203 -37 q 203 -78 242 -74 q 265 -72 300 -62 q 334 -52 344 -52 q 355 -52 355 -62 q 355 -82 325 -103 q 294 -124 260 -136 q 210 -155 163 -155 q 144 -155 129 -140 q 103 -112 103 -74 q 103 -36 122 9 q 142 54 169 97 q 197 141 226 182 q 292 281 292 322 q 292 351 252 360 q 235 364 219 368 q 179 378 182 418 q 183 434 193 445 q 202 455 207 455 q 212 455 226 450 q 239 445 260 445 q 280 445 316 461 q 353 478 383 508 q 413 538 427 571 q 441 604 443 632 q 445 660 446 688 q 448 789 536 822 q 567 834 597 834 q 740 834 740 783 q 740 770 730 752 q 720 733 705 725 q 690 717 675 731 q 660 746 637 752 q 615 758 593 755 q 572 752 556 735 q 541 718 542 681 q 542 644 533 604 q 524 563 503 524 q 458 442 345 403 q 407 373 384 302 q 364 242 307 158 q 238 57 221 21 q 203 -16 203 -37 z"},"9":{"x_min":0,"x_max":399,"ha":399,"o":"m 316 282 q 232 237 192 237 q 152 237 136 272 q 131 285 130 301 q 130 344 148 387 q 166 431 194 465 q 223 499 259 529 q 295 559 332 579 q 410 621 452 621 q 534 621 534 540 q 534 481 491 403 q 447 325 387 254 q 328 183 263 120 q 199 57 141 18 q 83 -21 53 -21 q 41 -21 34 -13 q 27 -5 21 12 q 12 27 12 38 q 12 49 28 54 q 89 75 166 135 q 243 195 319 279 z m 437 551 q 403 551 348 511 q 294 472 253 422 q 212 372 212 343 q 212 322 239 322 q 281 322 381 375 q 420 428 442 464 q 464 500 464 517 q 464 534 455 542 q 447 551 437 551 z"}," ":{"x_min":0,"x_max":208,"ha":208,"o":""},"I":{"x_min":0,"x_max":280,"ha":280,"o":"m 499 708 l 521 709 q 534 709 534 699 q 534 696 533 695 q 300 352 97 22 q 86 4 78 2 q 78 2 73 0 q 49 -9 39 -9 q 29 -9 28 -10 q 24 -15 18 -15 q 12 -15 10 -14 q 8 -14 -1 -10 q -11 -7 -11 -5 q -11 19 -9 24 q 1 59 104 219 q 207 380 313 533 q 419 687 441 704 q 448 709 459 709 z"},"H":{"x_min":0,"x_max":750,"ha":750,"o":"m 953 697 l 959 697 q 962 697 963 696 q 963 696 965 696 q 966 695 967 694 q 969 692 974 690 q 979 686 979 680 q 979 674 968 656 q 957 637 909 564 q 800 397 713 254 q 564 5 562 4 q 561 2 561 1 q 560 -2 557 -2 l 550 0 l 537 -4 l 529 -2 l 521 -4 l 518 -4 l 490 -8 q 466 -8 466 9 q 466 16 470 26 q 485 62 623 285 q 532 283 444 283 l 339 283 q 313 242 269 166 q 171 0 165 -2 q 159 -4 155 -4 q 151 -4 147 1 q 144 5 143 5 q 142 5 138 3 q 134 1 126 1 l 115 2 l 111 5 q 110 5 110 3 q 109 2 106 2 q 85 2 85 20 q 85 31 93 50 q 102 69 115 92 q 128 114 184 198 q 240 282 240 282 q 231 283 219 283 q 194 283 184 285 q 156 290 146 331 q 140 351 141 357 q 141 371 152 371 l 165 367 q 174 367 211 365 q 249 363 265 363 l 292 364 q 356 463 444 589 q 380 536 301 536 q 264 536 237 554 q 210 572 210 599 q 210 626 231 642 q 251 658 270 658 q 289 658 289 652 q 289 650 283 648 q 278 646 278 643 q 278 635 295 629 q 312 623 334 623 q 355 623 386 635 q 417 648 451 667 q 498 695 525 713 q 541 721 555 721 q 568 721 574 718 q 581 714 583 711 q 586 708 590 703 q 593 698 596 695 q 600 692 600 689 q 600 686 596 678 q 592 671 559 619 q 525 567 472 486 q 419 405 395 367 q 525 367 676 372 q 860 663 871 677 q 881 691 889 695 q 897 700 910 700 z"},"4":{"x_min":0,"x_max":439,"ha":439,"o":"m 549 569 q 446 410 380 292 q 482 302 492 302 q 502 302 502 298 q 502 293 477 257 q 453 222 440 216 q 424 212 332 204 q 275 104 213 -10 q 207 -24 162 -33 q 143 -36 136 -39 q 131 -39 125 -33 q 118 -27 118 -21 q 140 26 238 197 q 86 186 79 186 q 63 186 63 228 q 63 247 66 254 q 83 295 180 381 q 277 468 376 538 q 474 608 501 613 q 501 613 505 612 q 508 610 518 607 q 527 604 535 601 q 538 599 541 593 q 544 586 546 585 q 550 577 550 573 q 550 570 549 569 z m 155 261 q 214 272 288 282 q 355 397 440 516 q 388 473 280 375 q 172 277 155 261 z"},"~":{"x_min":0,"x_max":387,"ha":387,"o":"m 406 355 q 422 375 434 375 q 447 375 453 361 q 460 348 460 334 q 460 319 456 312 q 438 274 402 252 q 366 229 335 229 q 304 229 286 236 q 269 243 258 253 q 247 263 237 272 q 214 296 198 296 q 183 296 169 289 q 156 282 147 272 q 137 263 128 253 q 106 229 86 229 q 82 229 77 235 q 73 242 73 259 q 73 276 90 302 q 106 327 128 345 q 179 384 207 384 q 234 384 253 374 q 271 364 281 352 q 292 340 304 330 q 317 319 333 319 q 350 319 366 325 q 382 331 391 339 q 400 347 406 355 z"},"D":{"x_min":0,"x_max":785,"ha":785,"o":"m 235 479 l 225 480 l 223 480 q 210 480 198 490 q 185 500 185 524 q 185 549 212 581 q 239 613 285 639 q 332 666 401 683 q 470 700 546 700 q 703 700 791 638 q 879 577 879 478 q 879 417 852 355 q 825 293 779 241 q 733 189 671 144 q 609 99 541 67 q 395 0 261 0 q 195 0 178 11 q 171 14 165 21 q 159 28 156 31 q 146 37 146 56 q 146 75 150 91 q 165 143 282 318 q 399 492 478 599 q 483 606 533 610 q 553 610 561 607 q 569 604 569 596 q 569 589 543 553 q 518 518 380 306 q 243 94 243 88 q 243 82 286 82 q 329 82 392 100 q 456 119 511 148 q 567 178 618 218 q 668 257 705 298 q 784 388 784 458 q 784 527 720 576 q 656 625 545 625 q 471 625 404 600 q 338 575 313 556 q 288 536 288 529 q 288 525 294 525 l 315 529 q 319 529 319 527 q 319 525 311 521 q 303 516 298 510 q 292 504 272 492 q 251 479 235 479 z"},"^":{"x_min":0,"x_max":500,"ha":500,"o":"m 549 467 l 552 426 q 552 413 529 403 q 506 393 481 393 q 455 393 455 408 q 455 411 457 418 q 459 425 471 493 q 483 562 487 600 q 463 573 384 502 q 304 431 277 395 q 275 394 268 394 q 260 394 239 410 q 219 427 219 440 q 219 453 229 467 q 240 481 260 500 q 281 518 301 533 q 321 549 351 573 q 381 597 393 606 q 405 616 448 651 q 491 685 503 697 q 514 708 523 708 q 532 708 562 678 q 569 670 569 661 l 569 658 q 549 531 549 467 z"},"0":{"x_min":0,"x_max":427,"ha":427,"o":"m 545 524 q 545 516 540 484 q 534 452 502 403 q 502 401 503 394 q 503 387 501 373 q 498 359 479 322 q 460 284 432 240 q 403 196 364 151 q 325 106 284 70 q 244 33 197 10 q 151 -13 113 -13 q 76 -13 53 10 q 30 32 29 74 q 27 115 50 174 q 72 232 109 291 q 146 349 195 406 q 244 462 294 506 q 345 549 395 576 q 445 603 477 603 q 509 603 526 581 q 544 558 545 524 z m 118 111 q 119 72 147 72 q 175 72 217 104 q 288 159 383 286 q 356 271 341 271 q 325 271 316 282 q 308 293 308 314 q 307 335 322 341 q 383 365 422 416 q 461 466 459 511 q 458 526 438 526 q 417 526 367 483 q 317 440 268 379 q 218 319 175 249 q 132 178 120 129 q 117 121 118 111 z"},"F":{"x_min":0,"x_max":581,"ha":581,"o":"m 189 267 q 176 267 176 284 q 176 297 187 312 q 199 327 201 332 q 204 337 214 347 q 225 357 233 359 q 241 361 266 364 q 342 371 432 372 q 529 520 591 592 q 500 575 367 575 q 187 575 187 656 q 187 679 210 696 q 233 713 268 713 q 304 713 304 705 q 304 700 293 700 q 282 700 272 692 q 263 684 263 677 q 263 666 311 660 q 358 655 458 655 q 558 655 675 673 q 713 705 747 721 q 781 737 816 737 q 852 737 862 721 q 873 706 873 698 q 874 690 862 677 q 850 665 829 651 q 780 621 700 615 q 614 507 523 371 q 561 370 594 365 q 626 361 626 340 q 626 331 599 306 q 596 303 591 296 q 583 284 576 284 q 568 284 559 286 q 521 288 501 288 l 470 287 q 298 20 292 9 q 287 -1 280 -7 q 273 -12 264 -12 q 254 -12 236 -9 q 219 -6 210 -1 q 201 3 201 10 q 201 18 206 31 q 217 63 370 283 q 271 278 212 273 z m 810 708 q 802 706 791 700 z"},"`":{"x_min":0,"x_max":400,"ha":400,"o":"m 360 590 q 372 548 381 521 q 399 467 399 451 q 399 434 385 434 q 371 434 362 438 q 352 442 346 450 q 340 458 336 464 q 333 470 329 480 q 325 490 318 504 q 311 519 295 542 q 279 565 271 577 q 263 588 263 597 q 263 606 286 619 q 309 632 323 632 q 336 632 340 631 q 343 629 346 626 q 349 622 351 618 q 353 614 356 606 q 358 598 360 590 z"},"k":{"x_min":0,"x_max":368,"ha":368,"o":"m 38 -12 l 7 -5 q -7 -3 -17 13 q -19 18 -20 19 q -21 20 -21 21 q -21 22 -20 25 q -19 28 -17 32 q -15 37 -13 42 q -3 77 158 368 q 319 660 327 669 q 334 678 338 682 q 342 686 346 689 q 351 692 353 693 q 355 694 362 696 q 369 698 376 701 q 383 703 391 707 q 398 711 401 713 q 404 715 409 715 q 414 715 418 710 q 422 706 422 699 l 422 696 q 419 687 295 464 q 170 242 159 221 q 197 236 271 296 q 345 355 346 375 q 347 395 359 403 q 372 412 387 412 q 402 412 412 402 q 423 392 422 369 q 422 347 397 312 q 372 277 337 247 q 263 184 213 163 q 252 56 304 56 q 332 60 372 102 q 387 117 401 132 q 416 147 419 150 q 422 153 428 153 q 437 153 439 139 q 441 125 441 110 q 441 95 438 89 q 424 62 376 22 q 328 -17 285 -17 q 254 -17 236 -5 q 218 6 208 14 q 198 22 187 35 q 176 49 169 58 q 162 66 153 82 q 144 98 140 104 q 136 111 129 126 q 121 141 120 142 q 111 124 101 103 q 90 82 81 64 q 72 46 65 31 q 58 16 53 6 q 48 -3 48 -4 q 44 -12 38 -12 z"},"u":{"x_min":0,"x_max":396,"ha":396,"o":"m 444 153 q 453 153 455 139 q 457 125 457 110 q 457 95 454 89 q 440 62 392 22 q 344 -17 301 -17 q 275 -17 252 -1 q 230 15 230 54 q 230 94 251 132 q 130 -20 61 -20 q 34 -20 17 0 q 0 19 0 40 q 0 61 6 83 q 12 105 18 123 q 25 140 38 166 q 51 192 57 204 q 63 215 77 239 q 91 263 114 303 q 137 343 152 362 q 167 381 181 382 q 195 382 206 370 q 216 358 216 351 q 216 344 184 285 q 87 110 87 82 q 87 74 92 74 q 116 74 209 176 q 302 277 317 306 q 332 334 345 354 q 359 374 366 378 q 387 392 420 393 q 426 393 429 392 q 432 392 436 384 q 439 376 439 372 q 435 358 401 299 q 366 240 362 232 q 305 113 305 77 q 305 56 320 56 q 349 60 389 102 q 403 117 418 132 q 432 148 436 151 q 439 153 444 153 z"},"]":{"x_min":0,"x_max":366,"ha":366,"o":"m 475 749 q 475 758 433 758 l 405 758 q 394 758 386 758 q 378 757 374 757 q 369 756 361 755 q 354 754 345 752 q 336 750 333 750 q 312 750 312 799 q 312 847 338 847 l 502 842 q 530 842 541 819 q 550 801 554 774 q 558 748 558 733 q 558 718 540 681 q 523 644 418 410 q 313 176 287 123 q 261 70 223 -10 q 186 -91 163 -134 q 151 -155 75 -155 q 30 -155 -26 -151 q -82 -146 -82 -128 q -82 -110 -65 -84 q -48 -58 -37 -57 q -15 -57 26 -63 q 68 -70 104 -70 q 359 470 468 728 q 475 745 475 749 z"},"U":{"x_min":0,"x_max":740,"ha":740,"o":"m 770 270 q 783 270 783 235 q 783 201 779 189 q 764 151 711 105 q 657 58 594 26 q 530 -7 489 -7 q 469 -7 456 8 q 442 23 442 48 q 442 91 492 181 q 542 270 613 367 q 495 230 446 183 q 397 135 358 101 q 320 67 289 46 q 216 -2 173 -2 q 130 -2 112 22 q 94 45 94 74 q 94 159 193 312 q 292 465 375 562 q 304 500 278 500 q 251 500 238 516 q 225 533 225 553 q 225 574 244 593 q 264 611 273 611 q 282 611 282 609 q 282 608 274 599 q 267 590 267 586 q 267 583 273 583 q 292 583 356 622 q 420 660 466 697 q 478 707 494 707 q 510 707 524 699 q 525 702 533 698 q 540 695 547 688 q 555 680 555 674 q 555 667 551 662 q 348 399 295 320 q 189 158 189 110 q 189 93 204 93 q 218 93 285 147 q 469 297 800 675 q 813 690 825 689 l 829 689 q 831 689 840 691 q 849 692 870 692 q 918 692 918 674 q 918 667 904 647 q 890 627 844 563 q 799 499 731 399 q 664 300 615 217 q 565 134 565 112 q 565 111 567 111 q 569 111 583 118 q 625 140 681 188 q 737 236 752 253 q 767 270 770 270 z"},"o":{"x_min":0,"x_max":366,"ha":366,"o":"m 155 331 q 235 395 295 395 q 322 395 335 382 q 340 377 340 374 l 340 371 q 347 372 362 372 q 376 372 392 359 q 407 346 407 319 q 407 292 388 248 q 369 205 336 160 q 303 116 263 76 q 223 37 177 12 q 131 -13 93 -13 q 56 -13 33 10 q 10 34 10 76 q 10 119 31 170 q 52 221 84 260 q 117 300 155 331 z m 312 307 l 309 307 q 292 307 292 332 q 256 320 217 291 q 178 262 147 222 q 85 142 84 86 q 84 59 104 59 q 124 59 164 85 q 203 112 242 161 q 281 209 300 245 q 319 281 319 294 q 319 307 312 307 z"},"N":{"x_min":0,"x_max":647,"ha":647,"o":"m 478 694 l 513 702 q 527 702 535 696 q 543 690 543 685 q 543 680 541 670 q 539 660 501 479 q 464 299 447 210 q 530 323 641 488 q 752 653 771 707 q 776 724 786 733 q 795 743 802 744 q 810 746 825 746 q 840 746 861 740 q 881 733 881 718 q 881 689 796 552 q 710 415 601 260 q 491 106 417 16 q 404 0 385 0 q 367 0 346 7 q 325 13 325 30 q 325 83 419 546 q 339 441 224 255 q 104 62 88 16 q 79 -12 68 -17 q 60 -20 51 -20 l 13 -24 q 1 -24 -8 -18 q -18 -12 -18 -5 q -18 15 36 112 q 90 209 162 323 q 234 437 313 545 q 392 653 435 690 q 443 698 455 698 z"},"+":{"x_min":0,"x_max":415,"ha":415,"o":"m 400 270 l 284 275 q 264 225 253 168 q 252 166 251 161 q 250 157 250 154 q 250 151 249 147 q 248 144 247 141 q 246 139 244 137 q 241 133 237 133 q 233 133 230 134 q 227 136 224 139 q 221 142 219 144 q 217 147 213 151 l 208 158 q 207 160 203 165 q 199 169 197 171 q 196 173 193 176 q 191 179 190 182 q 189 184 189 186 q 189 188 191 192 q 193 196 202 216 q 217 250 225 276 q 151 274 134 274 q 103 274 103 293 q 103 295 105 300 q 106 304 111 316 q 115 327 116 331 q 118 335 122 341 q 128 351 143 351 q 182 351 248 348 q 250 352 271 389 q 293 426 301 441 q 309 457 310 461 q 312 465 313 469 q 315 472 318 476 q 325 484 336 484 q 347 484 359 474 q 371 464 371 453 q 371 442 365 429 q 358 416 342 389 q 325 362 316 345 q 396 342 417 342 q 452 342 452 323 q 452 316 449 312 q 446 307 443 300 q 439 293 437 290 q 436 287 432 282 q 428 278 424 275 q 414 270 400 270 z"},"G":{"x_min":0,"x_max":632,"ha":632,"o":"m 833 607 q 833 582 801 547 q 769 512 722 480 q 676 448 630 430 q 640 433 651 433 q 687 433 699 420 q 702 417 702 413 q 702 409 688 394 q 551 235 437 79 q 483 116 520 149 q 540 167 568 167 q 589 167 594 162 q 599 156 599 153 q 599 149 593 144 q 511 73 327 -64 q 295 -100 167 -234 q 144 -257 116 -257 q 62 -257 62 -227 q 62 -214 83 -185 q 113 -141 230 -51 q 256 -22 320 47 q 440 178 465 215 q 398 152 364 126 q 330 100 301 81 q 272 62 248 50 q 129 -6 79 50 q 54 78 54 132 q 54 186 83 250 q 113 315 163 379 q 213 442 281 502 q 350 562 423 607 q 497 653 579 680 q 660 708 732 708 q 757 708 779 700 q 801 691 811 682 q 833 660 833 607 z m 550 505 l 548 495 q 548 487 559 487 q 589 487 641 516 q 692 544 724 575 q 756 605 756 625 q 756 642 726 642 q 672 642 605 616 q 538 589 474 547 q 410 505 348 451 q 286 396 240 342 q 193 288 165 235 q 137 183 137 146 q 137 131 145 120 q 154 109 170 109 q 222 109 336 188 q 450 266 598 402 q 600 404 604 409 q 615 422 626 428 q 586 412 561 412 q 536 412 519 423 q 502 435 502 454 q 502 473 520 490 q 537 507 543 507 q 550 507 550 505 z"},"q":{"x_min":0,"x_max":409,"ha":409,"o":"m 309 67 q 229 -73 189 -152 q 191 -150 203 -138 q 215 -125 224 -116 q 250 -91 260 -91 q 264 -91 267 -91 q 270 -92 272 -92 q 274 -92 277 -94 q 279 -95 281 -96 q 283 -96 285 -98 q 288 -101 289 -101 q 290 -102 292 -105 q 295 -108 296 -109 q 296 -109 299 -113 q 302 -116 305 -119 q 308 -122 308 -128 q 308 -134 302 -143 q 295 -151 280 -165 q 264 -178 262 -180 q 143 -297 123 -297 q 102 -297 88 -282 q 73 -268 73 -250 q 73 -193 235 78 q 237 83 239 85 q 241 88 242 91 q 208 52 157 17 q 105 -18 69 -18 q 33 -18 14 4 q -4 26 -4 64 q -4 103 19 148 q 42 194 77 233 q 150 313 221 352 q 292 390 338 390 q 384 390 395 360 q 401 374 406 379 q 411 384 432 392 q 453 400 462 400 q 470 400 475 393 q 480 386 480 378 q 480 370 471 353 q 463 336 444 303 q 426 270 402 230 q 379 190 364 163 q 348 136 309 67 z m 369 321 q 361 327 345 327 q 312 327 263 296 q 213 266 184 236 q 154 207 119 156 q 84 104 84 79 q 84 69 93 69 q 116 69 178 117 q 239 165 278 205 q 317 245 369 321 z"},"d":{"x_min":0,"x_max":412,"ha":412,"o":"m 557 534 q 446 354 383 229 q 320 105 320 79 l 320 75 q 320 55 335 55 q 350 55 370 69 q 391 83 407 98 q 422 114 438 131 q 454 147 458 150 q 461 153 466 153 q 475 153 477 143 q 479 132 479 114 q 479 95 477 89 q 462 62 414 22 q 366 -17 323 -17 q 250 -17 250 45 q 250 83 279 146 q 240 95 199 59 q 123 -8 66 -8 q 35 -8 20 14 q 5 36 5 77 q 5 119 38 176 q 70 234 118 280 q 166 326 225 357 q 283 388 333 388 q 348 388 369 369 q 383 392 421 459 q 541 661 580 705 q 600 732 644 732 q 653 732 658 726 q 664 720 664 714 q 664 708 654 692 q 645 675 610 620 q 576 565 557 534 z m 339 323 q 269 308 208 258 q 148 208 118 154 q 87 99 87 83 q 87 67 94 67 q 124 67 239 198 q 297 262 339 323 z"},"1":{"x_min":0,"x_max":228,"ha":228,"o":"m 233 291 q 82 41 67 -2 q 67 -4 52 -8 q 38 -12 34 -12 q 30 -12 28 -8 q 17 13 11 19 q 6 25 1 28 q -4 31 -4 32 q -4 44 97 212 q 198 380 258 466 q 241 454 226 442 q 212 430 209 430 q 206 430 204 434 q 202 438 200 444 q 199 450 195 455 q 192 460 192 464 q 193 468 196 477 q 200 485 233 516 q 267 547 305 574 q 343 602 356 602 q 370 602 384 587 q 399 571 399 558 q 398 552 333 449 q 267 346 233 291 z"},"5":{"x_min":0,"x_max":388,"ha":388,"o":"m 304 569 q 344 579 498 593 q 508 593 522 572 q 536 551 536 542 q 536 534 533 523 q 530 512 527 509 q 523 506 512 502 q 500 499 484 496 q 467 493 451 491 q 435 489 411 487 q 388 484 373 483 q 330 479 302 477 q 275 435 220 340 q 244 345 281 345 q 317 345 350 325 q 383 306 386 261 q 386 213 365 168 q 344 124 311 91 q 278 58 238 32 q 157 -18 88 -18 q 4 -18 4 59 q 4 85 15 105 q 27 125 45 125 q 56 125 56 108 q 58 68 104 68 q 140 68 188 91 q 237 114 273 150 q 310 187 310 221 q 308 256 233 256 q 189 256 164 250 q 139 245 136 245 q 134 245 133 246 q 130 248 124 261 q 118 274 118 281 q 118 288 128 313 q 139 338 202 441 q 266 543 277 556 q 288 569 304 569 z"}}}
